name Walk4.mot
datacolumns 19
datarows 17
range 2.05500000 2.13500000
endheader

                time	   L_ground_force_vx	   L_ground_force_vy	   L_ground_force_vz	   L_ground_force_px	   L_ground_force_py	   L_ground_force_pz	   R_ground_force_vx	   R_ground_force_vy	   R_ground_force_vz	   R_ground_force_px	   R_ground_force_py	   R_ground_force_pz	   L_ground_torque_x	   L_ground_torque_y	   L_ground_torque_z	   R_ground_torque_x	   R_ground_torque_y	   R_ground_torque_z	
          2.05500000	          0.00435327	          0.01693911	         -0.00353073	         -0.00010579	          0.00000000	         -0.00006180	        -24.56249608	        860.65830241	        -43.29072672	          0.42517460	          0.00000000	          0.10021952	          0.00000000	         -0.00000902	          0.00000000	          0.00000000	          2.43292171	          0.00000000	
          2.06000000	         -0.00087912	          0.00308638	         -0.00222854	         -0.00007664	          0.00000000	         -0.00004584	        -22.06027014	        849.85910670	        -42.28649453	          0.42585271	          0.00000000	          0.10065556	          0.00000000	         -0.00001832	          0.00000000	          0.00000000	          1.99849843	          0.00000000	
          2.06500000	         -0.00416502	         -0.00604120	         -0.00121722	         -0.00005188	          0.00000000	         -0.00003198	        -19.64107023	        839.93522619	        -41.27345750	          0.42648806	          0.00000000	          0.10107403	          0.00000000	         -0.00002283	          0.00000000	          0.00000000	          1.57365276	          0.00000000	
          2.07000000	         -0.00594280	         -0.01141676	         -0.00047241	         -0.00003190	          0.00000000	         -0.00002056	        -17.29525105	        830.97520192	        -40.29475800	          0.42709271	          0.00000000	          0.10147624	          0.00000000	         -0.00002392	          0.00000000	          0.00000000	          1.15769841	          0.00000000	
          2.07500000	         -0.00661285	         -0.01396107	          0.00004258	         -0.00001656	          0.00000000	         -0.00001161	        -15.01428460	        823.04919625	        -39.39175810	          0.42767854	          0.00000000	          0.10186468	          0.00000000	         -0.00002273	          0.00000000	          0.00000000	          0.75003830	          0.00000000	
          2.08000000	         -0.00651955	         -0.01448854	          0.00036947	         -0.00000542	          0.00000000	         -0.00000496	        -12.79179405	        816.20047600	        -38.60092556	          0.42825762	          0.00000000	          0.10224248	          0.00000000	         -0.00002017	          0.00000000	          0.00000000	          0.35027844	          0.00000000	
          2.08500000	         -0.00594410	         -0.01368093	          0.00054987	          0.00000216	          0.00000000	         -0.00000030	        -10.62443254	        810.44394483	        -37.95114466	          0.42884294	          0.00000000	          0.10261287	          0.00000000	         -0.00001693	          0.00000000	          0.00000000	         -0.04117605	          0.00000000	
          2.09000000	         -0.00510496	         -0.01208102	          0.00062208	          0.00000684	          0.00000000	          0.00000272	         -8.51192224	        805.77033317	        -37.46108877	          0.42944806	          0.00000000	          0.10297915	          0.00000000	         -0.00001351	          0.00000000	          0.00000000	         -0.42302156	          0.00000000	
          2.09500000	         -0.00416310	         -0.01009957	          0.00061918	          0.00000931	          0.00000000	          0.00000443	         -6.45566755	        802.15470666	        -37.13770364	          0.43008513	          0.00000000	          0.10334310	          0.00000000	         -0.00001025	          0.00000000	          0.00000000	         -0.79366320	          0.00000000	
          2.10000000	         -0.00322986	         -0.00803015	          0.00056835	          0.00001015	          0.00000000	          0.00000518	         -4.45664839	        799.56662981	        -36.97651879	          0.43076317	          0.00000000	          0.10370400	          0.00000000	         -0.00000735	          0.00000000	          0.00000000	         -1.15159994	          0.00000000	
          2.10500000	         -0.00237594	         -0.00606799	          0.00049081	          0.00000989	          0.00000000	          0.00000526	         -2.51373798	        797.97717185	        -36.96315574	          0.43148752	          0.00000000	          0.10405903	          0.00000000	         -0.00000491	          0.00000000	          0.00000000	         -1.49596998	          0.00000000	
          2.11000000	         -0.00164043	         -0.00432978	          0.00040226	          0.00000894	          0.00000000	          0.00000489	         -0.62286823	        797.36049393	        -37.07570582	          0.43226073	          0.00000000	          0.10440483	          0.00000000	         -0.00000296	          0.00000000	          0.00000000	         -1.82704669	          0.00000000	
          2.11500000	         -0.00103903	         -0.00287267	          0.00031367	          0.00000763	          0.00000000	          0.00000426	          1.22285281	        797.69134931	        -37.28847640	          0.43308373	          0.00000000	          0.10473847	          0.00000000	         -0.00000147	          0.00000000	          0.00000000	         -2.14640095	          0.00000000	
          2.12000000	         -0.00057118	         -0.00171106	          0.00023205	          0.00000618	          0.00000000	          0.00000352	          3.03295834	        798.94103299	        -37.57398637	          0.43395623	          0.00000000	          0.10505783	          0.00000000	         -0.00000040	          0.00000000	          0.00000000	         -2.45714844	          0.00000000	
          2.12500000	         -0.00022599	         -0.00083082	          0.00016135	          0.00000476	          0.00000000	          0.00000277	          4.81981739	        801.07415863	        -37.90509164	          0.43487644	          0.00000000	          0.10536130	          0.00000000	          0.00000032	          0.00000000	          0.00000000	         -2.76345897	          0.00000000	
          2.13000000	          0.00001325	         -0.00020063	          0.00010325	          0.00000348	          0.00000000	          0.00000207	          6.59753114	        804.04975093	        -38.25852017	          0.43584142	          0.00000000	          0.10564745	          0.00000000	          0.00000075	          0.00000000	          0.00000000	         -3.06993369	          0.00000000	
          2.13500000	          0.00016562	          0.00021937	          0.00005783	          0.00000238	          0.00000000	          0.00000146	          8.38011324	        807.82369797	        -38.61714863	          0.43684786	          0.00000000	          0.10591519	          0.00000000	          0.00000097	          0.00000000	          0.00000000	         -3.38069054	          0.00000000	
